<?xml version="1.0" encoding="utf-8"?>
<!-- Generator: Adobe Illustrator 24.0.0, SVG Export Plug-In . SVG Version: 6.00 Build 0)  -->
<svg version="1.1" id="Chive_-_White" xmlns="http://www.w3.org/2000/svg" xmlns:xlink="http://www.w3.org/1999/xlink" x="0px"
	 y="0px" viewBox="0 0 800 800" style="enable-background:new 0 0 800 800;" xml:space="preserve">
<style type="text/css">
	.st0{fill-rule:evenodd;clip-rule:evenodd;fill:#FFFFFF;}
</style>
<g>
	<polygon class="st0" points="528.9,346.1 528.9,452.3 557,452.3 557,480.6 470.4,480.6 470.4,452.3 498.6,452.3 498.6,346.1 
		470.4,346.1 470.4,317.8 557,317.8 557,346.1 528.9,346.1 	"/>
	<path class="st0" d="M53.9,379.5h19.5v35.3c2.9-5.2,10.6-10.7,20.9-10.7c7.7,0,13,1.7,17.2,4.9c5.8,4.4,8.5,10.3,8.6,17.8v52.7
		h-19.5V435c0-12.2-3.5-15.2-12.6-15.1c-9.6-0.1-14.6,8.2-14.6,18v41.8H53.9V379.5L53.9,379.5z"/>
	<polygon class="st0" points="0,387.2 19.3,387.2 19.3,406.5 50.2,406.5 50.2,420.4 19.3,420.4 19.3,452 37.5,434 51.1,447.7 
		19.1,479.6 0,479.6 0,387.2 	"/>
	<polygon class="st0" points="711.9,317.8 800,317.8 800,346.1 742.2,346.1 742.2,385.5 774.9,385.5 774.9,413.8 742.2,413.8 
		742.2,452.2 799.9,452.2 799.9,480.6 711.9,480.6 711.9,317.8 	"/>
	<polygon class="st0" points="465.2,317.8 465.2,480.6 435,480.6 435,412.1 376.9,412.1 376.9,480.6 346.6,480.6 346.6,317.8 
		376.9,317.8 376.9,383.7 435,383.7 435,346.1 407.3,346.1 407.3,317.8 465.2,317.8 	"/>
	<polygon class="st0" points="562.1,317.8 620.1,317.8 620.1,346.1 592.4,346.1 592.4,426.2 667,317.8 704,317.8 589.6,480.6 
		562.1,480.6 562.1,317.8 	"/>
	<path class="st0" d="M157.7,404.1c7.6,0,14.9,1.5,20.6,5.5c11.7,8.4,14.2,23.7,14.3,38.1h-20.3h-29.7c0.1,1.6,0.2,3,0.4,3.9
		c1.8,8.7,7.7,13.6,14.8,13.8c5,0,12.1-1.8,13.7-8.2h20.2c-2.2,7.9-7.2,14.5-13.4,18.5c-6,4.1-13,5.2-20.3,5.2
		c-9.4,0-18.5-2.6-24.8-8.6c-6.6-6.3-10.4-17-10.4-29.8C122.8,416.2,138.5,404.1,157.7,404.1L157.7,404.1z M172.5,435.2L172.5,435.2
		c-0.3-10.8-8-15.6-14.8-15.6c-5.6,0-10.7,3.2-13.5,10.5c-0.4,1.2-0.8,3-1.1,5.2H172.5L172.5,435.2z"/>
	<path class="st0" d="M269,318.6c29.8,0,55.5,16.4,69.3,39c1.8,3,3.4,6.1,4.7,9.2h-34c-9.2-11.8-23.6-20.7-40.3-20.7
		c-16.1,0-29.6,7.2-39,18.6c-7.8,9.5-12.9,22-12.9,35.6c0,11.2,3.7,21.5,9.3,30.2c9.5,14.5,24.4,24.4,43,24.4
		c15.9,0,29.4-8.2,38.4-20.3h34.3c-1.5,3.5-3.3,7-5.2,10.2c-13.9,22.5-38.5,37.6-67,37.6c-29.3,0-53.2-14.8-68.2-36.7
		c-8.9-13-14.2-28.6-14.2-45.4c0-20.5,8-39.3,20.3-53.6C222.3,329.4,243.5,318.6,269,318.6L269,318.6z"/>
</g>
</svg>
