<?xml version="1.0" encoding="utf-8"?>
<!-- Generator: Adobe Illustrator 24.0.0, SVG Export Plug-In . SVG Version: 6.00 Build 0)  -->
<svg version="1.1" id="Grifols_-_White" xmlns="http://www.w3.org/2000/svg" xmlns:xlink="http://www.w3.org/1999/xlink" x="0px"
	 y="0px" viewBox="0 0 800 800" style="enable-background:new 0 0 800 800;" xml:space="preserve">
<style type="text/css">
	.st0{fill:#FFFFFF;}
</style>
<path class="st0" d="M795.5,331.9c-7.1-7.2-20.8-13.8-38-13.8c-27.2,0-47.6,17.2-47.6,38.4c0,21,12.3,30.7,26.9,43.1
	c12,9.9,32.2,21.5,32.2,38.8c0,14.9-11,21.9-23.4,21.9c-13.5,0-22.7-6.5-30.7-12.6l-11,18.1c11.2,10.8,28.6,15.8,44.2,15.8
	c33.9,0,51.9-23,51.9-42.9c0-19.4-10.7-32.7-30.9-49.7c-17.6-14.7-28.1-22.6-28.1-33c0-9.3,6.8-16.7,19.5-16.7
	c8.8,0,17.6,4.3,24.3,9L795.5,331.9z M615.8,478.9h72.2v-24.1h-41v-134h-31.2V478.9z M445.5,397.6c0,48.1,28.5,85.7,74.4,85.7
	c45.8,0,74.4-37.5,74.4-85.7c0-45.1-31.6-81.1-74.4-81.1C477.1,316.5,445.5,352.4,445.5,397.6 M562.3,397.6
	c0,30.8-11.1,64.7-42.4,64.7c-31.3,0-42.4-33.8-42.4-64.7c0-29.7,12.6-60.1,42.4-60.1C549.7,337.5,562.3,367.9,562.3,397.6
	 M438.6,320.9h-82.1v158.1h31.2v-65.7h36.8v-20.6h-36.8v-51.5h50.9V320.9z M292.3,478.9h31.2v-158h-31.2V478.9z M104,406.8v49.5
	c-6.4,3-13,3.9-21.1,3.9c-25.8,0-51-22.6-51-60.8c0-36.6,22-59.9,53.9-59.9c11.5,0,24.1,3.9,32.2,8.5l9.6-19.1
	c-9.8-6.9-26.2-12.4-42.6-12.4C32.4,316.5,0,355,0,399c0,47.4,32.6,84.3,84.2,84.3c17.1,0,33.9-4.1,49.9-9.9v-66.6H104z M200,395.1
	h4.7c21.5-0.2,28.3-17.2,28.3-28.8c0-18.1-12.6-24.3-25.1-24.3h-16.4v138.7h-31.6V320.5h54.5c30.1,0,50.2,14.7,50.2,41.9
	c0,23.8-11.7,37.5-26.5,46.5l37.2,68.5l-33.2,6.2l-31.9-66.8l-10.3-0.1V395.1z"/>
</svg>
