<?xml version="1.0" encoding="utf-8"?>
<!-- Generator: Adobe Illustrator 24.0.0, SVG Export Plug-In . SVG Version: 6.00 Build 0)  -->
<svg version="1.1" id="Bank_Audi_-_White" xmlns="http://www.w3.org/2000/svg" xmlns:xlink="http://www.w3.org/1999/xlink" x="0px"
	 y="0px" viewBox="0 0 800 800" style="enable-background:new 0 0 800 800;" xml:space="preserve">
<style type="text/css">
	.st0{fill:#FFFFFF;}
</style>
<g>
	<path class="st0" d="M0,452.8v-14.2h6.2c4.3,0,6.6-0.5,8-1.4c0.9-0.9,1.9-3.8,1.9-7.6v-61.1c0-4.3-0.5-6.6-1.9-8
		c-0.9-0.9-3.8-1.4-8-1.4H0v-14.2h63c14.2,0,24.6,1.9,31.2,6.2s9.9,10.4,9.9,19.4c0,6.2-1.9,11.4-5.7,15.6
		c-3.8,4.3-9.5,7.6-16.6,9.9c9.5,1.9,16.6,5.2,20.8,9.9c4.7,4.7,7.1,10.4,7.1,17.5c0,10.4-3.8,18-10.9,22.7
		c-7.6,4.7-19.9,7.1-37.4,7.1H0V452.8z M45.9,389.8H53c7.1,0,12.3-1.4,15.6-3.8c3.3-2.4,4.7-6.6,4.7-11.8c0-5.2-1.4-9-4.7-11.4
		c-3.3-2.4-8-3.3-15.1-3.3h-8L45.9,389.8z M45.9,438.6h8.5c8,0,13.7-1.4,17.5-4.3c3.8-2.8,5.7-7.1,5.7-13.3s-1.9-10.9-5.7-13.7
		c-3.8-2.8-9.5-4.3-18-4.3h-8.5v35.5H45.9z"/>
	<path class="st0" d="M163.8,444.3c-3.3,3.8-7.1,7.1-11.8,9c-4.3,1.9-9.5,2.8-14.7,2.8c-7.6,0-13.3-1.9-17.5-6.2
		c-4.3-3.8-6.6-9-6.6-15.6c0-6.2,1.9-10.9,5.2-14.2c3.8-3.3,10.9-6.2,22.2-8.5c9.5-1.9,15.1-4.3,18-6.2c2.4-1.9,3.8-4.7,3.8-8.5
		c0-3.8-1.4-6.6-4.3-9c-2.8-2.4-6.6-3.3-11.8-3.3c-2.8,0-5.2,0.5-7.1,0.9c-1.9,0.5-3.8,1.4-5.2,2.4c2.8,0,5.2,0.9,6.6,2.8
		c1.9,1.9,2.4,3.8,2.4,6.2c0,2.8-1.4,5.7-3.3,7.6c-2.4,1.9-5.2,2.8-9,2.8c-4.3,0-7.6-0.9-9.9-3.3c-2.4-2.4-3.8-5.2-3.8-9
		c0-6.6,3.3-11.8,9.5-15.1c6.6-3.8,15.6-5.7,27-5.7c5.7,0,10.9,0.5,15.6,1.4c4.7,0.9,8,2.4,10.9,4.3c2.8,1.9,5.2,4.3,6.6,7.1
		c1.4,2.8,1.9,7.1,1.9,13.3v1.9v29.4c0,2.4,0.5,4.3,0.9,5.2c0.5,0.9,1.9,1.9,3.3,1.9c1.4,0,2.4-0.5,3.3-1.4c0.5-0.9,0.9-2.8,0.9-5.7
		v-6.6h9.5v7.1c0,8-1.9,14.2-5.2,18c-3.8,3.8-9,5.7-17,5.7c-5.2,0-9-0.9-12.3-2.8C167.6,450.9,165.2,448.1,163.8,444.3z
		 M161.9,415.9c-1.9,0.9-4.7,2.4-8,4.3c-8.5,4.3-12.3,8-12.3,11.4c0,2.4,0.9,4.7,2.8,6.2c1.9,1.4,4.3,2.4,7.1,2.4
		c3.3,0,6.2-0.9,8-3.3c1.9-2.4,2.8-5.2,2.8-9.5v-11.4H161.9z"/>
	<path class="st0" d="M204,452.8v-13.3h4.3c2.8,0,5.2-0.5,6.2-1.4c0.9-0.9,1.4-2.8,1.4-6.2v-35c0-3.3-0.5-5.2-1.4-6.2
		c-0.9-0.9-2.8-1.4-6.2-1.4H204v-13.3h37.4v11.8c3.3-4.7,7.1-8,11.8-10.4c4.7-2.4,9.5-3.3,15.1-3.3c9,0,15.6,1.9,19.4,6.2
		c3.8,4.3,5.7,11.4,5.7,21.8v29.4c0,3.3,0.5,5.2,1.4,6.2c0.9,0.9,2.8,1.4,6.2,1.4h3.8v13.3h-47.3v-13.3h1.9c2.8,0,5.2-0.5,6.2-1.4
		c0.9-0.9,1.4-2.8,1.4-6.2v-29.4c0-4.7-0.9-8-2.8-10.4c-1.9-2.4-4.7-3.3-8.5-3.3c-4.3,0-7.6,1.4-9.5,4.3c-2.4,2.8-3.3,7.1-3.3,12.8
		v26c0,3.3,0.5,5.2,1.4,6.2c0.9,0.9,2.8,1.4,6.2,1.4h1.4v13.3H204L204,452.8L204,452.8z"/>
	<path class="st0" d="M341.8,344.9v66.7l21.8-17.5c0.5-0.5,0.9-0.5,0.9-0.9c0-0.5,0.5-0.9,0.5-1.4s-0.5-0.9-0.9-1.4
		c-0.9-0.5-1.9-0.5-3.3-0.5c-0.5,0-2.4,0-4.7,0c-0.9,0-1.9,0-2.8,0v-13.3H400v13.3c-0.5,0-0.5,0-0.9,0c-0.5,0-0.9,0-1.9,0
		c-2.4,0-4.7,0.5-6.6,0.9c-1.9,0.9-3.8,1.9-6.2,3.8l-9.9,8l18,30.8c0.9,2.4,2.4,3.8,4.3,4.7c1.4,0.9,3.8,1.4,6.2,1.4
		c0.5,0,1.4,0,1.4,0c0.5,0,0.5,0,0.9,0v13.3h-46.9v-13.3c3.3,0,5.7,0,6.2-0.5c0.9-0.5,0.9-0.9,0.9-1.9c0-0.9-0.5-1.9-1.4-3.8
		l-9-15.1l-13.3,10.9v3.8c0,3.3,0.5,5.2,1.4,6.2c0.9,0.9,2.4,1.4,4.7,1.4c0,0,0.5,0,0.9,0c0.5,0,0.9,0,0.9,0v13.3h-45.9v-13.3h3.3
		c3.3,0,5.2-0.5,6.2-1.4c0.9-0.9,1.4-2.8,1.4-5.7V368c0-4.7-0.5-7.6-1.4-8c-0.9-0.9-2.8-1.4-5.7-1.4h-3.8v-13.3L341.8,344.9z"/>
	<path class="st0" d="M442.6,452.8v-14.2h3.8c3.3,0,6.2-0.5,7.6-1.9c1.4-0.9,3.3-3.8,4.7-8.5l27.9-83.3h32.2l26.5,83.8
		c1.4,4.3,2.8,6.6,4.3,8c1.4,1.4,3.8,1.9,6.6,1.9h5.7v14.2h-59.6v-14.2h4.7c3.8,0,6.6-0.5,8-0.9c1.4-0.5,1.9-1.4,1.9-2.8
		c0-0.5-0.5-1.4-0.5-2.4c0-0.5-0.5-0.9-0.5-0.9l-4.3-13.3h-31.2l-4.3,12.3c0,0.9-0.5,1.4-0.5,2.4c0,0.9,0,1.4,0,1.9
		c0,1.4,0.5,2.4,1.4,2.8c0.9,0.5,3.3,0.9,7.1,0.9h5.2v14.2H442.6z M507.5,404l-10.9-34.1L485.7,404H507.5z"/>
	<path class="st0" d="M644.7,377v55.4c0,3.3,0.5,5.2,1.4,6.2c0.9,0.9,2.8,1.4,6.2,1.4h4.3v13.3h-37.4v-11.8
		c-3.3,4.7-7.1,8-11.8,10.4c-4.7,2.4-9.5,3.8-15.1,3.8c-9.5,0-16.1-1.9-19.9-6.2c-3.8-4.3-5.7-11.4-5.7-21.8v-29.3
		c0-3.3-0.5-5.2-1.4-6.2c-0.9-0.9-2.8-1.4-6.2-1.4h-3.8v-13.3h38.3v50.2c0,4.7,0.9,8,2.8,9.9c1.9,2.4,4.7,3.3,8.5,3.3
		c4.3,0,7.6-1.4,9.9-4.7c2.4-2.8,3.3-7.6,3.3-13.7v-24.6c0-3.3-0.5-5.2-1.4-6.2c-0.9-0.9-2.8-1.4-6.2-1.4h-1.9V377H644.7z"/>
	<path class="st0" d="M712,365.7c0-3.3-0.5-5.2-1.4-6.2c-0.9-0.9-3.3-1.4-6.2-1.4h-5.2v-13.3h39.8v87.6c0,2.8,0.5,5.2,1.4,6.2
		c0.9,0.9,2.8,1.4,6.2,1.4h3.8v13.3h-36.9v-10.4c-3.3,4.7-6.6,8-10.4,9.9c-3.8,1.9-8,3.3-13.3,3.3c-10.4,0-18.5-3.3-23.7-10.4
		c-5.7-6.6-8-17-8-30.3c0-12.8,2.8-22.7,8.5-29.8c5.7-7.6,13.3-10.9,22.2-10.9c4.7,0,9,0.9,12.8,2.8s7.6,4.7,10.9,8.5L712,365.7z
		 M686.9,415.4c0,8.5,0.9,15.1,3.3,19.4c2.4,4.3,5.2,6.6,9.5,6.6c4.3,0,7.6-2.4,9.5-6.6c1.9-4.3,3.3-10.9,3.3-19.9
		c0-9-0.9-15.6-2.8-19.9c-1.9-4.3-5.2-6.2-9.5-6.2s-7.6,1.9-9.5,6.2C687.8,399.8,686.9,406.4,686.9,415.4z"/>
	<path class="st0" d="M761.7,399.8v-0.9c0-4.3-0.5-6.6-1.4-7.1c-0.9-0.9-2.8-1.4-5.7-1.4h-5.2V377h39.8v55.4c0,3.3,0.5,5.2,1.4,6.2
		c0.9,0.9,2.8,1.4,5.7,1.4h3.8v13.3h-51.1V440h4.7c2.8,0,5.2-0.5,6.2-1.4c0.9-0.9,1.4-2.8,1.4-6.2v-32.7L761.7,399.8L761.7,399.8z
		 M760.7,357.2c0-3.8,1.4-6.6,3.8-9.5c2.8-2.4,5.7-3.8,9.5-3.8c3.8,0,6.6,1.4,9.5,3.8c2.4,2.4,3.8,5.7,3.8,9.5
		c0,3.8-1.4,7.1-3.8,9.5c-2.4,2.4-5.7,3.8-9.5,3.8c-3.8,0-7.1-1.4-9.5-3.8C761.7,364.3,760.7,360.9,760.7,357.2z"/>
</g>
</svg>
