<?xml version="1.0" encoding="utf-8"?>
<!-- Generator: Adobe Illustrator 24.0.0, SVG Export Plug-In . SVG Version: 6.00 Build 0)  -->
<svg version="1.1" id="NC_Vision_Zero_-_White" xmlns="http://www.w3.org/2000/svg" xmlns:xlink="http://www.w3.org/1999/xlink"
	 x="0px" y="0px" viewBox="0 0 800 800" style="enable-background:new 0 0 800 800;" xml:space="preserve">
<style type="text/css">
	.st0{fill:#FFFFFF;}
</style>
<g>
	<g>
		<path class="st0" d="M391.7,474.4l54.1-62.9h-52.4v-19h80.2v16.4l-54.1,62.9h54.1v19h-81.9V474.4z"/>
		<path class="st0" d="M494,392.5h74.2v19.2h-52.7v19.9h46.3v19.2h-46.3v20.6h53.4v19.2H494V392.5z"/>
		<path class="st0" d="M588.1,392.5h44.9c12.5,0,22.2,3.5,28.7,10c5.5,5.5,8.4,13.2,8.4,22.5v0.3c0,15.9-8.6,25.8-21.1,30.5l24,35.1
			h-25.3l-21.1-31.5h-0.3h-16.7v31.5h-21.6V392.5z M631.7,440.3c10.5,0,16.6-5.6,16.6-13.9v-0.3c0-9.3-6.5-14-17-14h-21.5v28.2
			H631.7z"/>
		<path class="st0" d="M685.3,441.9v-0.3c0-27.9,22.1-50.8,52.4-50.8c30.3,0,52.1,22.6,52.1,50.6v0.3c0,27.9-22.1,50.8-52.4,50.8
			C707.1,492.5,685.3,469.9,685.3,441.9z M767.2,441.9v-0.3c0-16.9-12.4-30.9-29.8-30.9c-17.4,0-29.5,13.8-29.5,30.6v0.3
			c0,16.9,12.4,30.9,29.8,30.9C755.1,472.6,767.2,458.8,767.2,441.9z"/>
	</g>
	<g>
		<path class="st0" d="M383.4,307.3h18.5l20,53.8l20-53.8h18.1L429,384.2h-14.8L383.4,307.3z"/>
		<path class="st0" d="M473.8,307.3h16.8v76.3h-16.8V307.3z"/>
		<path class="st0" d="M505.2,372.5l9.9-11.9c6.9,5.7,14.1,9.3,22.8,9.3c6.9,0,11-2.7,11-7.2v-0.2c0-4.3-2.6-6.4-15.4-9.7
			c-15.4-3.9-25.3-8.2-25.3-23.3v-0.2c0-13.8,11.1-23,26.7-23c11.1,0,20.6,3.5,28.3,9.7l-8.7,12.6c-6.8-4.7-13.4-7.5-19.8-7.5
			c-6.4,0-9.8,2.9-9.8,6.7v0.2c0,5,3.3,6.7,16.5,10c15.5,4,24.2,9.6,24.2,22.9v0.2c0,15.2-11.6,23.7-28,23.7
			C526,384.7,514.4,380.7,505.2,372.5z"/>
		<path class="st0" d="M581.8,307.3h16.8v76.3h-16.8V307.3z"/>
		<path class="st0" d="M615.6,345.7v-0.2c0-21.7,17.1-39.5,40.7-39.5c23.6,0,40.5,17.6,40.5,39.3v0.2c0,21.7-17.1,39.5-40.7,39.5
			C632.5,384.9,615.6,367.4,615.6,345.7z M679.1,345.7v-0.2c0-13.1-9.6-24-23.1-24c-13.5,0-22.9,10.7-22.9,23.8v0.2
			c0,13.1,9.6,24,23.1,24C669.8,369.5,679.1,358.8,679.1,345.7z"/>
		<path class="st0" d="M713.1,307.3h15.5l35.8,47v-47h16.6v76.3h-14.3l-37-48.5v48.5h-16.6V307.3z"/>
	</g>
	<g>
		<path class="st0" d="M0,302.7h38.4l88.7,116.5V302.7h41.1V492h-35.4L41.1,371.6V492H0V302.7z"/>
		<path class="st0" d="M194.2,397.9v-0.5c0-53.8,40.6-97.9,98.7-97.9c35.7,0,57.1,11.9,74.6,29.2L341,359.2
			c-14.6-13.2-29.5-21.4-48.4-21.4c-31.9,0-54.9,26.5-54.9,58.9v0.5c0,32.4,22.4,59.5,54.9,59.5c21.6,0,34.9-8.7,49.8-22.2
			l26.5,26.8c-19.5,20.8-41.1,33.8-77.6,33.8C235.5,495.2,194.2,452.2,194.2,397.9z"/>
	</g>
	<polygon class="st0" points="685.3,495.4 688.4,500.6 800,387.7 797.9,383.6 	"/>
</g>
</svg>
