<?xml version="1.0" encoding="utf-8"?>
<!-- Generator: Adobe Illustrator 24.0.0, SVG Export Plug-In . SVG Version: 6.00 Build 0)  -->
<svg version="1.1" id="NC_State_-_White" xmlns="http://www.w3.org/2000/svg" xmlns:xlink="http://www.w3.org/1999/xlink" x="0px"
	 y="0px" viewBox="0 0 800 800" style="enable-background:new 0 0 800 800;" xml:space="preserve">
<style type="text/css">
	.st0{fill:#FFFFFF;}
</style>
<g>
	<polygon class="st0" points="29.2,283.1 29.5,283.1 69.3,390.1 109.7,390.1 109.7,243.8 81,243.8 81,345.1 80.6,345.1 41.8,243.8 
		0.3,243.8 0.3,390.1 29.2,390.1 	"/>
	<path class="st0" d="M184.6,370.7c-17.4,0-18.9-16.2-18.9-53.8s2-53.6,18.9-53.6c9.1,0,12.5,7.4,12.5,26.8h29.5
		c1.2-31.4-11.3-48.8-42.5-48.8c-50.4,0-50.4,37.8-50.4,75.6s0,75.6,50.4,75.6c28.5,0,44-12.5,44-51.6h-29.5
		C198.1,352.5,198.7,370.7,184.6,370.7z"/>
	<path class="st0" d="M384,350.1c0-45.9-61.6-43.5-61.6-71.2c-0.8-7.9,5.1-14.8,12.8-15.7c1-0.2,2-0.2,3,0
		c12.3,0,14.2,11.1,14.2,22.1h29.7c2-30.5-12.7-44-42.5-44c-37.8,0-48.2,18.9-48.2,41.2c0,43.7,61.6,45.2,61.6,71.5
		c1,8.1-4.6,15.5-12.7,16.5c-0.8,0.2-1.9,0.2-2.9,0.2c-16.4,0-16.4-12-16.4-26.1h-31.5c-1.5,25.3,5.4,47.6,43.5,47.6
		C356.1,392.5,384,388.1,384,350.1z"/>
	<polygon class="st0" points="428.3,390.1 458.9,390.1 458.9,268.1 493,268.1 493,243.8 394.3,243.8 394.3,268.1 428.3,268.1 	"/>
	<path class="st0" d="M524.3,243.8l-40.5,146.4h30l8.3-32.6h41.7l8.1,32.6h32.4l-39.8-146.4H524.3z M528.9,335.3l13.8-63.3l0,0
		l14.7,63.3H528.9z"/>
	<polygon class="st0" points="659.5,390.1 659.5,268.1 693.5,268.1 693.5,243.8 594.9,243.8 594.9,268.1 628.9,268.1 628.9,390.1 	
		"/>
	<polygon class="st0" points="789.2,367.5 738.4,367.5 738.4,324.8 783.6,324.8 783.6,302.4 738.4,302.4 738.4,266.3 787.7,266.3 
		787.7,243.8 707.7,243.8 707.7,390.1 789.2,390.1 	"/>
	<path class="st0" d="M59.7,512.1c0,15.7,0,37.8-24.3,37.8s-24.1-22.1-24.1-37.8v-75.6H0v83.2c0,30.9,16.2,39,34.9,39
		s34.9-8.1,34.9-39v-83.2h-10v75.6H59.7z"/>
	<polygon class="st0" points="166.8,541.6 166.5,541.9 118.1,436.8 101.7,436.8 101.7,556.4 112.4,556.4 112.4,450.7 112.7,450.3 
		161.3,556.4 177.5,556.4 177.5,436.8 166.8,436.8 	"/>
	<rect x="210.9" y="436.8" class="st0" width="10.6" height="119.6"/>
	<polygon class="st0" points="283.4,544 283.1,544 254.7,436.8 243.3,436.8 276.8,556.4 290,556.4 323.1,436.8 312.9,436.8 	"/>
	<polygon class="st0" points="355.5,499.6 397,499.6 397,490.5 355.5,490.5 355.5,445.8 398.8,445.8 398.8,436.8 344.7,436.8 
		344.7,556.4 400,556.4 400,547.7 355.5,547.7 	"/>
	<path class="st0" d="M467.8,494.4L467.8,494.4c16-3.7,18.9-13.7,18.9-28.5c0-20.9-5.7-28.7-28.7-28.7h-33.2v119.6h9.6v-58.2h20.2
		c22.9,0,18.9,23.1,18.9,28.3c0,10,0.5,19.7,1.7,29.7h10c0-4.6-1.2-9.3-1.2-13.8C485.5,499.8,484.7,497.9,467.8,494.4z M453.3,489.6
		h-18.9v-43.9h21.8c12.5,0,18.9,3.2,18.9,18.9C475.7,485.4,468.3,489.6,453.3,489.6z"/>
	<path class="st0" d="M547.8,490.1c-13.7-9.8-22.4-10.5-22.4-28.2c0-14,8.1-18.9,20.9-18.9c16.2,0,20.1,9.1,20.4,23.8h10.6
		c0-17.4-5.2-32.7-30-32.7c-18.9,0-32.7,8.4-32.6,29.4c0,12,1.2,18.9,24.3,33.2c17.2,10.6,28,15.4,28,31.5
		c1.3,10.3-6.1,19.7-16.4,21.1c-1.5,0.2-2.9,0.2-4.4,0c-21.4,0-22.3-13.8-22.3-27h-11c0,23.5,9.4,36.1,32.9,36.1
		c15.5,2,29.7-8.9,31.7-24.5c0.3-2.5,0.3-5.1,0-7.4C577.1,503.8,562.1,500.8,547.8,490.1z"/>
	<rect x="607" y="436.8" class="st0" width="10.6" height="119.6"/>
	<polygon class="st0" points="640.6,445.8 669.8,445.8 669.8,556.4 680.4,556.4 680.4,445.8 709.4,445.8 709.4,436.8 640.6,436.8 	
		"/>
	<polygon class="st0" points="789.4,436.8 760.7,496.4 733.5,436.8 721.4,436.8 755.1,506.8 755.1,556.4 765.9,556.4 765.9,506.8 
		800,436.8 	"/>
</g>
</svg>
