<?xml version="1.0" encoding="utf-8"?>
<!-- Generator: Adobe Illustrator 24.0.0, SVG Export Plug-In . SVG Version: 6.00 Build 0)  -->
<svg version="1.1" id="Raytheon_-_White" xmlns="http://www.w3.org/2000/svg" xmlns:xlink="http://www.w3.org/1999/xlink" x="0px"
	 y="0px" viewBox="0 0 800 800" style="enable-background:new 0 0 800 800;" xml:space="preserve">
<style type="text/css">
	.st0{fill:#FFFFFF;}
</style>
<g id="XMLID_24_">
	<path id="XMLID_25_" class="st0" d="M166.7,419.5h-10v-20.8h10V419.5z M646.3,422.3h-9.5v-55.4h9.5V422.3z M538.9,384.8h-9.6v-17.9
		h9.6V384.8z M373.1,377.1v-26.5h-15.4V323h-45.6v27.6h-35.9l-13.7,48.5l-13.2-48.5h-44l35,91.9L227.4,477H272l39.9-104.4V443h45.7
		v-65.9H373.1z M800,443v-68.2c0-7.7-3.2-14.3-9.7-19.9c-6.2-5.2-12.9-7.9-20.5-7.7c-12.5,0.2-21.7,3.5-27.7,10l-0.2-8.6h-43.6v94.4
		h45.3v-65.9h9.4V443H800z M211.1,443v-60.7c0-12-4.8-21.2-14-27.9c-8.6-6.2-19.7-9.2-33.4-9.1c-16,0.2-28.5,3.4-37.6,9.6
		c-7.9,5.2-11.7,11.5-11.7,19.1v4.2h42.8v-11.3h9.6v17.5l-21.9,0.5c-22.5,0.4-33.9,9.4-34,26.6c-0.3,21.9,9.7,32.8,29.9,32.8
		c12.2,0,21.4-4.5,27.7-13.5l0.2,12.2H211.1z M586.4,394.8c-0.3-15.9-3.7-27.6-10-34.9c-8.2-9.7-22.2-14.5-42.2-14.5
		c-16.9,0-29.1,2.5-36.5,7.5c-10.6,7.2-15.9,21.3-15.9,41.9c0,20.2,5.5,34,16.6,41.6c7.5,5.2,19.4,7.8,35.6,8
		c15.6,0.2,27.4-2.3,35.6-7.7c7.2-4.8,12.3-12.3,15.1-22.5c0.5-2,0.8-3.7,0.9-5.2H539v13.4h-9.7v-22h56.8
		C586.3,398.3,586.4,396.5,586.4,394.8 M693.8,394.8c0-20.5-5.2-34.2-15.7-41.6c-7.2-5.1-19.4-7.8-36.5-7.8
		c-17.1,0-29.2,2.6-36.5,7.7c-10.3,7.4-15.5,21.3-15.5,41.7c0,20.8,5.2,34.6,15.5,41.9c7.2,5.1,19.4,7.7,36.5,7.7
		c16.9,0,29.1-2.5,36.5-7.7C688.5,429.2,693.8,415.2,693.8,394.8 M107,355c0.3-8.9-2.6-16.5-8.2-22.6c-5.7-6.3-13.2-9.4-22.9-9.4H0
		V443h48v-44.7h10.6V443h48.2v-37.9c0-6.8-1.2-11.7-3.9-14.9c-3.7-4.6-7.5-7.6-11.4-8.9c5.2-3.1,8.9-6.2,10.9-9.2
		C105.2,368,106.7,362.3,107,355 M479,443v-70.4c0-7.2-2.8-13.2-8.2-18.2c-5.4-4.8-11.9-7.2-19.4-7.2c-5.4,0-10.8,0.9-16.2,2.8
		c-5.4,1.8-9.4,4.2-12,6.8V323h-45.9V443h45.9v-65.9h9.5V443H479z M58.8,372.1H48.3v-26.2h10.5L58.8,372.1L58.8,372.1z"/>
</g>
</svg>
