<?xml version="1.0" encoding="utf-8"?>
<!-- Generator: Adobe Illustrator 24.0.0, SVG Export Plug-In . SVG Version: 6.00 Build 0)  -->
<svg version="1.1" id="IKEA_-_White" xmlns="http://www.w3.org/2000/svg" xmlns:xlink="http://www.w3.org/1999/xlink" x="0px"
	 y="0px" viewBox="0 0 800 800" style="enable-background:new 0 0 800 800;" xml:space="preserve">
<style type="text/css">
	.st0{fill:#FFFFFF;}
</style>
<g id="XMLID_6_">
	<path id="path33_1_" class="st0" d="M0,256.5h800v287H0V256.5z M400,531.7c215.7,0,390.6-58.6,390.6-130.9
		c0-72.3-174.9-130.9-390.6-130.9c-215.7,0-390.5,58.6-390.5,130.9C9.4,473.1,184.3,531.7,400,531.7"/>
	<path id="path43_1_" class="st0" d="M307.3,444.9c0,0,1.4-1.2,1.6-1.9c0.5-2.4-0.3-4.8-0.3-4.8l-21.6-34V404l0.1,35.7l0.6,2.8
		l1.2,1.5h-68.2l1.1-1.5l0.6-3l0-93l-0.6-2.7l-1.1-1.4h68.2l-1.1,1.5l-0.6,3l0,33.3l24.7-32.3c0,0,0.5-1.3,0.5-3.1
		c0-1.1-1.1-3-1.1-3l67.9,0.1l-29.5,42l35.6,56.9l2.7,2l3,1.3h-83.5V444.9z"/>
	<path id="polygon53_1_" class="st0" d="M182.9,440l0.6,3.2l1.1,1.9l-68.1-0.2l0.8-1.9l0.2-3.2v-93.1l-0.3-2.7l-0.8-1.5h68.2
		l-1.1,1.5l-0.6,3L182.9,440z"/>
	<path id="polygon63_1_" class="st0" d="M507.8,379.9l3.1-0.6l1.9-1.1l-0.1,28.7l-2-1.2l-2.9-0.6l-37.8,0v9.4h49.3l3.5-0.7l1.7-1.3
		l0.1,32.4l-119.5-0.2l1.1-1.9l0.5-3.2v-93.1l-0.5-3.2l-1.2-2l119.1,0.2l0.1,31.2l-1.9-0.8l-3.2-0.2h-49v8.3L507.8,379.9z"/>
	<path id="path73_1_" class="st0" d="M621.4,385.4l-8,18h16.1L621.4,385.4z M580.3,346.7c0,0,0.5-1.8,0.3-3.3c-0.2-1.4-1.1-2-1.1-2
		l92.4,0c0,0-1,0.5-1.2,2c-0.2,1.4,0.3,3.3,0.3,3.3l40.3,94.5l1.3,2l1.8,1.6l-73,0.1c0,0,1.1-2.4,1-3.3c-0.1-1-0.5-2.4-0.5-2.4
		l-4.7-13.3h-31.8l-5.2,13.3c0,0-0.5,0.1-0.5,1.1c0,2,1.2,3.7,1.2,3.7h-58.8c0,0,2-0.8,3.1-3.2c0.9-1.9,0.7-1.8,0.7-1.8L580.3,346.7
		L580.3,346.7z"/>
</g>
</svg>
