<?xml version="1.0" encoding="utf-8"?>
<!-- Generator: Adobe Illustrator 24.0.0, SVG Export Plug-In . SVG Version: 6.00 Build 0)  -->
<svg version="1.1" id="Mears_-_White" xmlns="http://www.w3.org/2000/svg" xmlns:xlink="http://www.w3.org/1999/xlink" x="0px"
	 y="0px" viewBox="0 0 800 800" style="enable-background:new 0 0 800 800;" xml:space="preserve">
<style type="text/css">
	.st0{fill:#FFFFFF;}
</style>
<g>
	<g>
		<path class="st0" d="M437.8,366.7c-8.6,0-19.7,2.2-25.9,14.8c-5.2-10.9-14.8-14.8-24.7-14.8c-10.2,0-19.1,5.3-23.3,15v-13.3h-19.2
			v79H364v-40.4c0.5-17.3,9.1-24.1,17.8-24.1c9.2,0,14.7,7.2,14.7,20.9v43.6h19.1v-40.4c0.5-17.3,9.1-24.1,17.8-24.1
			c9.2,0,14.7,7.2,14.7,20.9v43.6h19.2v-43.7C467.2,380.9,458.3,366.7,437.8,366.7z"/>
		<path class="st0" d="M525.8,366.7c-25,0-43.3,18.4-43.3,41.5c0,22.5,17,40.9,45.4,40.9c12.2,0,25.1-3.3,35.8-15.1l-10.9-10.8
			c-6.7,6.1-14.1,9.7-23.9,9.7c-17,0-27.2-9.8-27.2-22.3h65.6C567.3,380.1,547.2,366.7,525.8,366.7z M502.7,397.6
			c4.1-12.2,14.7-15.6,23.1-15.6c8.1,0,18.9,3.4,21.9,15.6H502.7z"/>
		<path class="st0" d="M643,380.1c-6.4-9.1-16.2-13.4-26.9-13.4c-24.2,0-38.9,18.6-38.9,40.9c0,23.1,15.3,41.5,38.7,41.5
			c11.6,0,21.4-5,27-13.6v11.9h19.2v-79H643V380.1z M619.9,433c-14.4,0-23.3-11.2-23.3-25.3c0-13.6,8.3-25,22.8-25
			c14.2,0,24.1,10.5,24.1,25.8C643.5,424.1,633.1,433,619.9,433z"/>
		<path class="st0" d="M703,385.9v-17.5h-18.9v79h19.2v-36.5c0-21.9,11.7-25.8,18.7-25.8c2.5,0,6.1,0.5,9.1,1.6v-18.9
			c-2.3-0.6-3.9-1.1-6.6-1.1C716.1,366.7,705.7,372.4,703,385.9z"/>
		<path class="st0" d="M779.9,402.4l-11.7-4.2c-4.4-1.6-8.3-3.7-8.3-8.1c0-5.5,5.3-8.3,10.3-8.3c4.2,0,10,1.7,12,8.1l15.5-5.6
			c-5.2-14.2-17.6-17.6-27.6-17.6c-16.4,0-28.9,9.2-28.9,23.9c0,7.2,4.1,16.1,19.8,22l11.6,4.4c4.8,2,8.6,4.4,8.6,8.4
			c0,6.2-6.2,8.3-11.9,8.3c-7.2,0-14.8-3.6-16.9-11.4l-15.1,6.4c4.5,15.1,19.1,20.5,31.9,20.5c16.4,0,30.9-8.4,30.9-24
			C800,418.2,796.7,408,779.9,402.4z"/>
	</g>
	<g>
		<polygon class="st0" points="256.8,308.1 145.6,243.8 89.2,336.9 		"/>
		<polygon class="st0" points="0,481.8 0,483.5 128.6,556.2 128.6,405.7 0,333.1 		"/>
		<polygon class="st0" points="150.2,405.7 150.2,556.2 278.9,483.5 278.9,333.3 		"/>
		<polygon class="st0" points="125.3,248.5 10.9,314.5 66.3,345.7 		"/>
		<polygon class="st0" points="80.2,353.6 139.4,387 250.9,324.2 		"/>
	</g>
</g>
</svg>
