<?xml version="1.0" encoding="utf-8"?>
<!-- Generator: Adobe Illustrator 24.0.0, SVG Export Plug-In . SVG Version: 6.00 Build 0)  -->
<svg version="1.1" id="gogo_-_White" xmlns="http://www.w3.org/2000/svg" xmlns:xlink="http://www.w3.org/1999/xlink" x="0px"
	 y="0px" viewBox="0 0 800 800" style="enable-background:new 0 0 800 800;" xml:space="preserve">
<style type="text/css">
	.st0{fill:#FFFFFF;}
</style>
<g>
	<path class="st0" d="M57.5,602.3c0-15.3,17.1-19,34.4-22.9c3.2-0.6,6.3-1.4,9.5-2.1c-2.2,27.6-13.3,35.6-24.3,36.7
		c-1.5,0.1-2.9,0.3-4.2,0.3C62.5,614.4,57.5,609.5,57.5,602.3z M395.2,602.3c0-15.3,17.1-19,34.4-22.9c3.1-0.6,6.3-1.4,9.5-2.1
		c-2.3,27.6-13.3,35.6-24.3,36.7c-1.5,0.1-3,0.3-4.2,0.3C400.2,614.4,395.2,609.5,395.2,602.3z M50.5,477.8c0-16,7.7-28.4,28.6-28.4
		c9.9,0,17.4,2.6,22.7,7v42.5c-5.3,4.4-12.8,7.2-22.7,7.2C58.2,506.2,50.5,493.9,50.5,477.8z M218,477.8c0-15.8,7.1-28.4,28-28.4
		c20.8,0,28.1,12.6,28.1,28.4c0,16-7.2,28.3-28.1,28.3C225.2,506.2,218,493.9,218,477.8z M388.1,477.8c0-16,7.8-28.4,28.6-28.4
		c9.9,0,17.4,2.6,22.7,7v42.5c-5.3,4.4-12.8,7.2-22.7,7.2C395.9,506.2,388.1,493.9,388.1,477.8z M554.3,477.8
		c0-15.8,7.2-28.4,27.9-28.4c20.9,0,28.1,12.6,28.1,28.4c0,16-7.2,28.3-28.1,28.3C561.5,506.2,554.3,493.9,554.3,477.8z
		 M503.9,477.8c0,9.4,2.3,20.4,5.1,27.5c-3.9,3.5-9.9,8-19.1,13.3V414.2h-45l0.7,10.2c-8.6-7.6-20.4-12.6-37.9-12.6
		c-19.4,0-34.9,4.8-46.3,13.3c-16.5,2.8-38.7,4.7-60.8,1.2c-12.8-9.2-30.8-14.4-54.5-14.4c-53.8,0-78.4,26.8-78.4,66.2
		c0,9.7,1.6,18.8,4.6,26.7c-4,3.7-10.1,8.4-20,14.1V414.2h-44.8l0.6,10.2c-7.5-7.6-20.9-12.6-37.9-12.6c-46,0-70,26.8-70,66.2
		c0,39.4,24,66.1,70,66.1c8.9,0,21.7-1.7,31.8-6.2v5.6c-4.1,1.5-8.1,2.8-17.4,4.9C62.3,553.4,13,560.6,13,603.4
		c0,29.9,28.9,47.9,63.8,47.9c34.9,0,75.5-20.1,75.5-86.9v-6.3c14.8-7,30.4-16,42.2-26.7c12.5,7.9,29.6,12.5,51.6,12.5
		c53.8,0,78.5-26.7,78.5-66.1c0-5.2-0.5-10.3-1.4-15.1c5.1,0.3,10.4,0.2,16-0.2c-0.9,4.9-1.4,10-1.4,15.3c0,39.4,23.9,66.1,70,66.1
		c8.7,0,26.2-3.7,31.8-6.2v5.6c-3.1,1.6-8.8,3-17.4,4.9c-22.1,5.1-71.5,12.3-71.5,55.1c0,29.9,28.9,47.9,63.8,47.9
		c34.9,0,75.5-20.1,75.5-86.9v-6.3c14.5-6.9,29.9-15.8,41.6-26.2c12.5,7.7,29.3,12,50.7,12c54,0,78.5-26.7,78.5-66.1
		c0-42.2-25.4-66.2-78.5-66.2C528.5,411.7,503.9,438.5,503.9,477.8z M669.1,423h3c0.9,0,1.6,0.4,1.6,1.6c0,1.2-0.8,1.6-1.6,1.6h-3
		V423z M667.1,421.3v10.3h2V428h2.5l1.8,3.5h2.2l-2.2-3.8c1.2-0.4,2.1-1.6,2.1-3.1c0-2-1.4-3.3-3.6-3.3H667.1z M663.4,426.7
		c0-4.2,3.4-7.5,7.4-7.5c4.2,0,7.6,3.3,7.6,7.5c0,4.2-3.3,7.6-7.6,7.6C666.8,434.2,663.4,430.8,663.4,426.7z M661.6,426.7
		c0,5.1,4.2,9.3,9.3,9.3c5.2,0,9.4-4.2,9.4-9.3c0-5.2-4.2-9.3-9.4-9.3C665.7,417.3,661.6,421.5,661.6,426.7z"/>
	<path class="st0" d="M480.7,148.7c-36.7,0-70.7,21.8-85.5,55c-41.4,5.4-68.7,35-68.7,70.3c0,40,35.4,72.6,81.1,72.6
		c10.5,0,23.3-2.3,32.2-7c19.1,12.6,46.4,19.4,73.4,19.4c28.1,0,56.3-7.3,77.4-20.1c8.4,5.7,18.1,8.4,27.7,8.4
		c14.7,0,29.3-6.2,39.5-17.7c9.2-10.4,13.2-23.7,13.2-37.6c0-27-21.5-48.6-48-48.6c-15.5,0-28.1,5.4-38,14.1l14.8,21.1
		c4.2-4,11.5-8.9,21.8-8.9c10.1,0,22.1,6.2,22.7,22.7c0.5,14.6-12.3,26.1-24.1,26.1c-11.8,0-21.2-4.6-28.1-13.2
		c-20.2,17.5-53.2,24.9-79.1,24.9c-35.5,0-59-12.6-70.8-21.3c-9,5.6-24,8.9-34.8,8.9c-29.8,0-52.3-19.7-52.3-43.8
		c0-22.6,22.7-44.2,58.3-44.2c0.2,0,0.5,0,0.7,0c8.2-30.4,35.4-52.4,66.3-52.4c0,0,0,0,0.1,0c31.2,0,46.4,15.9,58.2,32.7
		c4.5-5,13.4-8.4,22.7-8.4c6,0,12.1,1.4,17.4,4.5c11.4,6.9,16.7,17.7,16.4,31c5.9-2.9,15.8-5.2,26.6-5.2c11.4,0,23.8,2.6,33.6,9.7
		c19.2,14,24.3,28.2,26.4,47.1h75.7L729.4,315h32l38.6-40.7l-38.7-40.7h-32L758,260h-53.4c-11.4-37.4-48.7-56.3-78.6-56.4
		c-5.1,0-9.9,0.6-14.4,1.7c-8-19.9-28.4-29.8-47.5-29.8c-5.6,0-11.1,0.9-16.1,2.6C534.8,161.1,506.2,148.7,480.7,148.7L480.7,148.7z
		"/>
</g>
</svg>
