<?xml version="1.0" encoding="utf-8"?>
<!-- Generator: Adobe Illustrator 24.0.0, SVG Export Plug-In . SVG Version: 6.00 Build 0)  -->
<svg version="1.1" id="Quanta_-_White" xmlns="http://www.w3.org/2000/svg" xmlns:xlink="http://www.w3.org/1999/xlink" x="0px"
	 y="0px" viewBox="0 0 800 800" style="enable-background:new 0 0 800 800;" xml:space="preserve">
<style type="text/css">
	.st0{fill:none;}
	.st1{fill:#FFFFFF;}
	.st2{fill:none;stroke:#FFFFFF;stroke-width:0;stroke-linecap:round;stroke-linejoin:round;}
</style>
<g>
	<path class="st0" d="M489,445.2h-4.6v5h4.6c1.5,0,2.8-1,2.8-2.5C491.8,446.2,490.5,445.2,489,445.2z"/>
	<path class="st0" d="M437,346.1c-0.3,0-0.6,0-0.9,0.1c-0.2,0-0.5,0.1-0.7,0.2c0,0-0.1,0-0.1,0c-1.7,0.6-2.9,2.1-3.5,4.2
		c-0.3,1.3-0.5,4.8-0.5,10.4v21.7c0,6.5,0.2,9.6,0.7,11c0.8,2.5,2.7,3.9,5.1,3.9c0.3,0,0.6,0,0.9-0.1c0.2,0,0.5-0.1,0.7-0.2
		c0,0,0.1,0,0.1,0c1.7-0.6,2.9-2.1,3.5-4.2c0.3-1.3,0.5-4.8,0.5-10.4V361c0-6.5-0.2-9.6-0.7-11C441.3,347.6,439.5,346.1,437,346.1z"
		/>
	<polygon class="st0" points="572.8,381.5 580.8,381.5 576.7,354.1 	"/>
	<polygon class="st0" points="777.4,381.5 785.5,381.5 781.4,354.1 	"/>
	<path class="st1" d="M507.1,407.3c4.7,0,9.2-2.1,11.9-5.5c3.3-4,4.1-7.7,4.1-17.9v-46.3h-10.3v45.2c0,5.8-0.2,9.1-0.5,10.4
		c-0.7,2.9-2.7,4.5-5.3,4.5c-2.5,0-4.3-1.4-5.1-3.9c-0.5-1.4-0.7-4.5-0.7-11v-45.2h-10.3v46.3c0,10.1,0.8,13.9,4.1,17.9
		C497.8,405.2,502.3,407.3,507.1,407.3z"/>
	<path class="st1" d="M583.4,337.5H570l-11.2,68.7H569l2.4-15.1h11l2.4,15.1h10.6L583.4,337.5z M572.8,381.5l3.9-27.4l4.1,27.4
		H572.8z"/>
	<polygon class="st1" points="655.7,378.3 641.6,337.5 631.2,337.5 631.2,406.2 640.8,406.2 640.8,363.8 655.7,406.2 665.3,406.2 
		665.3,337.5 655.7,337.5 	"/>
	<polygon class="st1" points="701,347.1 711.9,347.1 711.9,406.2 722.2,406.2 722.2,347.1 733.4,347.1 736.6,337.5 701,337.5 	"/>
	<path class="st1" d="M788.1,337.5h-13.4l-11.2,68.7h10.2l2.4-15.1h11l2.4,15.1H800L788.1,337.5z M777.4,381.5l3.9-27.4l4.1,27.4
		H777.4z"/>
	<path class="st1" d="M457.9,416.6l-8.1-15.7c2.7-3.7,3.4-7.7,3.4-17v-24c0-10.1-0.8-13.9-4.1-17.9c-2.8-3.5-7.2-5.5-12-5.5
		c-0.6,0-1.2,0-1.7,0.1c-4.1,0.5-7.8,2.4-10.2,5.4c-3.3,4-4.1,7.8-4.1,17.9v24c0,10.1,0.8,13.9,4.1,17.9c2.8,3.5,7.2,5.5,12,5.5
		c0.6,0,1.2,0,1.7-0.1c1-0.1,2-0.3,2.9-0.6l11.5,13L457.9,416.6z M442.9,382.8c0,5.6-0.2,9.1-0.5,10.4c-0.5,2.2-1.8,3.6-3.5,4.2
		c0,0-0.1,0-0.1,0c-0.2,0.1-0.5,0.1-0.7,0.2c-0.3,0-0.6,0.1-0.9,0.1c-2.5,0-4.3-1.4-5.1-3.9c-0.5-1.4-0.7-4.5-0.7-11V361
		c0-5.6,0.2-9.1,0.5-10.4c0.5-2.2,1.8-3.6,3.5-4.2c0,0,0.1,0,0.1,0c0.2-0.1,0.5-0.1,0.7-0.2c0.3,0,0.6-0.1,0.9-0.1
		c2.5,0,4.3,1.4,5.1,3.9c0.5,1.4,0.7,4.5,0.7,11V382.8z"/>
	<path class="st1" d="M430.6,448.7c-2.5-0.5-3.9-0.9-3.9-2c0-1,0.7-1.7,2.7-1.7c2,0,4.4,0.8,6.3,2.3l3.2-4.1c-2.4-2-5.5-3.1-9.1-3.1
		c-5.7,0-8.9,3.3-8.9,7c0,5.3,5.2,6.2,8.9,7c2.4,0.5,3.8,1,3.8,2.3c0,1.1-1.2,1.9-3.2,1.9c-3.1,0-5.5-1.3-7.1-3l-3.1,4.3
		c2.2,2.1,5.4,3.6,9.9,3.6c6,0,9.3-3,9.3-7.5C439.4,450.6,434.3,449.5,430.6,448.7z"/>
	<polygon class="st1" points="450.5,462.7 466.9,462.7 466.9,457.9 456.3,457.9 456.3,453.8 466.7,453.8 466.7,448.9 456.3,448.9 
		456.3,445.2 466.9,445.2 466.9,440.3 450.5,440.3 	"/>
	<path class="st1" d="M497.6,447.8c0-4.2-2.8-7.5-7.8-7.5h-11.2v22.4h5.8v-7.6h3l3.8,7.6h6.6l-4.6-8.2
		C495.3,453.8,497.6,451.7,497.6,447.8z M489,450.2h-4.6v-5h4.6c1.5,0,2.8,1,2.8,2.5C491.8,449.3,490.5,450.2,489,450.2z"/>
	<polygon class="st1" points="518.5,456.5 513,440.3 506.5,440.3 514.9,462.7 522.2,462.7 530.6,440.3 524.1,440.3 	"/>
	<rect x="540.6" y="440.3" class="st1" width="5.8" height="22.4"/>
	<path class="st1" d="M569.6,445.1c2.3,0,4.2,1.5,5,3.3l5-2.4c-1.5-3-4.4-6-9.9-6c-6.7,0-11.9,4.7-11.9,11.6
		c0,6.9,5.2,11.6,11.9,11.6c5.6,0,8.5-3.1,9.9-6l-5-2.3c-0.7,1.8-2.7,3.3-5,3.3c-3.5,0-6.1-2.8-6.1-6.5
		C563.6,447.9,566.1,445.1,569.6,445.1z"/>
	<polygon class="st1" points="590.4,462.7 606.8,462.7 606.8,457.9 596.2,457.9 596.2,453.8 606.6,453.8 606.6,448.9 596.2,448.9 
		596.2,445.2 606.8,445.2 606.8,440.3 590.4,440.3 	"/>
	<path class="st1" d="M627.4,448.7c-2.5-0.5-3.9-0.9-3.9-2c0-1,0.7-1.7,2.7-1.7c2,0,4.4,0.8,6.3,2.3l3.2-4.1c-2.4-2-5.5-3.1-9.1-3.1
		c-5.7,0-8.9,3.3-8.9,7c0,5.3,5.2,6.2,8.9,7c2.4,0.5,3.8,1,3.8,2.3c0,1.1-1.2,1.9-3.2,1.9c-3.1,0-5.5-1.3-7.1-3l-3.1,4.3
		c2.2,2.1,5.4,3.6,9.9,3.6c6,0,9.3-3,9.3-7.5C636.2,450.6,631.1,449.5,627.4,448.7z"/>
	<line class="st2" x1="293.4" y1="452.9" x2="288.7" y2="443"/>
	<path class="st1" d="M293.4,452.9l-4.7-9.9l-3.2-6.6l-39.8-83.3l-1.5-3.2l-1.8-3.8c-0.3-0.7-1-1.1-1.7-1.1c0,0,0,0,0,0
		c-0.4,0-0.8,0.1-1.2,0.4L222.3,360l-2.5,2.1l-0.1,0l0,0l-14.8-20.3l-1.6-2.2c-17.6-14-40-19.3-61.1-15.6c-1.1,0.2-2.1,0.4-3.2,0.6
		c-0.8,0.2-1.6,0.3-2.4,0.5c-6.8,1.7-13.5,4.4-19.7,8c-0.1,0.1-0.2,0.1-0.3,0.2c-0.1,0.1-0.2,0.1-0.4,0.2c-4.3,2.5-8.3,5.5-12.1,8.9
		l-2.3,2.1c-0.2,0.2-0.4,0.4-0.6,0.6l71.1,97.8c1,1.4,2.9,1.6,4.2,0.5l34.5-29.2l124,135.4l1.6-1.4l1.6-1.3l-18.3-38.2L293.4,452.9z
		"/>
	<path class="st1" d="M189.6,470.1c-67.6,0-122.5-39.9-122.5-89.1c0-2.1,0.1-4.1,0.3-6.1l0.2,0c1.3-10.6,5.4-20.7,11.9-30
		c0.5-0.6,0.9-1.3,1.4-1.9c2.5-3.4,5.3-6.5,8.2-9.4l2.3-2.1c3.8-3.4,7.9-6.4,12.2-8.9c0.2-0.1,0.3-0.2,0.4-0.2
		c0.1-0.1,0.2-0.1,0.3-0.2c6.3-3.6,13-6.3,20-8c1.9-0.5,3.7-0.8,5.6-1.2c23.7-4,49.1,2.9,67.7,20.6c0.8,0.7,2,1.8,2.4,2.1
		c0.3,0.3,1,0.9,1.6,1.2c0,0,0,0,0,0l-2.4-3.4l-2.8-3.9c-0.2-0.3-0.5-0.7-0.7-1c-10.9-14.7-24.7-25.8-40-33.3
		c-7.3-3.6-14.9-6.3-22.7-8.1c-1.8-0.4-3.6-0.8-5.4-1.2c-17.2-3.2-35-2.4-51.9,2.7c-0.3,0.1-0.6,0.2-0.9,0.3
		c-5.5,1.7-11,3.9-16.2,6.6c-9,4.5-17.6,10.4-25.4,17.7c0,0,0,0,0,0c0,0,0,0,0,0c-0.7,0.6-1.4,1.3-2,1.9c-0.2,0.2-0.4,0.4-0.7,0.7
		c-0.5,0.5-0.9,0.9-1.3,1.4c-0.3,0.3-0.5,0.5-0.8,0.8c-0.4,0.4-0.8,0.8-1.2,1.3c-0.3,0.3-0.5,0.6-0.8,0.8c-0.4,0.4-0.8,0.8-1.1,1.2
		c-0.2,0.3-0.5,0.6-0.7,0.8c-0.4,0.4-0.7,0.9-1.1,1.3c-0.2,0.3-0.5,0.5-0.7,0.8c-0.4,0.5-0.8,0.9-1.2,1.4c-0.2,0.2-0.4,0.5-0.6,0.7
		c-0.6,0.7-1.1,1.4-1.7,2.1c0,0,0,0,0,0c-0.5,0.7-1.1,1.4-1.6,2.1c-0.2,0.2-0.3,0.5-0.5,0.7c-0.3,0.5-0.7,1-1,1.5
		c-0.2,0.3-0.4,0.6-0.6,0.9c-0.3,0.5-0.6,0.9-0.9,1.4c-0.2,0.3-0.4,0.6-0.6,0.9c-0.3,0.4-0.6,0.9-0.8,1.3c-0.2,0.3-0.4,0.6-0.6,0.9
		c-0.3,0.5-0.5,0.9-0.8,1.4c-0.2,0.3-0.3,0.6-0.5,0.9c-0.3,0.5-0.6,1-0.8,1.5c-0.1,0.3-0.3,0.5-0.4,0.7c-0.4,0.8-0.8,1.5-1.2,2.3
		c0,0,0,0,0,0c-0.4,0.8-0.7,1.5-1.1,2.3c-0.1,0.3-0.2,0.5-0.3,0.8c-0.2,0.5-0.5,1.1-0.7,1.6c-0.1,0.3-0.3,0.6-0.4,0.9
		c-0.2,0.5-0.4,1-0.6,1.5c-0.1,0.3-0.2,0.6-0.4,1c-0.2,0.5-0.4,1-0.5,1.4c-0.1,0.3-0.2,0.6-0.3,1c-0.2,0.5-0.3,1-0.5,1.5
		c-0.1,0.3-0.2,0.6-0.3,0.9c-0.2,0.5-0.3,1.1-0.5,1.6c-0.1,0.3-0.2,0.5-0.2,0.8c-0.2,0.8-0.4,1.6-0.6,2.4c-0.2,0.8-0.4,1.6-0.5,2.4
		c-0.1,0.3-0.1,0.5-0.2,0.8c-0.1,0.6-0.2,1.1-0.3,1.7c-0.1,0.3-0.1,0.6-0.2,1c-0.1,0.5-0.2,1-0.2,1.5c0,0.3-0.1,0.7-0.1,1
		c-0.1,0.5-0.1,1-0.2,1.5c0,0.3-0.1,0.7-0.1,1c0,0.5-0.1,1-0.1,1.6c0,0.3-0.1,0.6-0.1,1c0,0.6-0.1,1.1-0.1,1.7c0,0.3,0,0.5,0,0.8
		c0,0.8,0,1.7,0,2.5c0,66.9,85,121.2,189.8,121.2c27.3,0,53.3-3.7,76.8-10.3l-30.5-29.1C221.8,467.8,206.1,470.1,189.6,470.1z"/>
	<path class="st1" d="M364,333.7c-1.3-2-2.7-3.9-4.2-5.8c-0.1-0.1-0.1-0.2-0.2-0.2c-0.3-0.4-0.6-0.7-0.9-1.1l0,0
		c-47.2-62.6-179.8-76.1-181.2-76.2l0,0c-0.4,0-0.7,0.6-0.8,1.5c-0.1,0.9,0.1,1.6,0.5,1.6c0,0,0,0,0,0v0c0.6,0.1,30.3,3.1,66.4,12.8
		c0,0,0,0.1,0,0.1c0,0,0,0.1,0,0.1c-3.9-1-6.3-1.5-6.3-1.5v0c0,0,0,0-0.1,0c-0.3,0-0.6,0.3-0.7,0.9c-30.8-7.6-54.7-10.2-55.2-10.2v0
		c-0.4,0-0.8,0.6-0.9,1.5c-0.1,0.9,0.1,1.6,0.5,1.6c0,0,0,0,0,0v0c0.2,0,2.9,0.3,7.6,1c-0.2,0.3-0.3,0.7-0.3,1.1c0,0.1,0,0.2,0,0.4
		c-9.2-1.4-14.7-1.9-15-1.9l0,0c-0.4,0-0.7,0.6-0.8,1.5c-0.1,0.9,0.1,1.6,0.5,1.6c0,0,0,0,0,0v0c0.2,0,5.1,0.5,13,1.6
		c-0.3,0.2-0.5,0.7-0.6,1.4c-0.1,0.8,0.1,1.6,0.5,1.6v0c0.5,0,19.9,2,44.5,7.6c0,0.1-0.1,0.2-0.1,0.3c0,0.1,0,0.1,0,0.2
		c-22.9-4.8-40.5-6.4-40.8-6.4v0c0,0,0,0,0,0c-0.4,0-0.8,0.6-0.9,1.5c-0.1,0.4,0,0.9,0.1,1.2c-3.6-0.4-5.6-0.6-5.7-0.6l0,0
		c0,0-0.1,0-0.1,0c-0.4,0-0.7,0.7-0.8,1.5c0,0.8,0.2,1.5,0.6,1.6v0c0.6,0,26.9,2.2,58.1,10c0,0,0,0.1,0,0.1
		c-35.3-8.3-67.4-10-67.7-10.1v0c0,0,0,0,0,0c-0.4,0-0.7,0.7-0.8,1.5c0,0.8,0.2,1.5,0.6,1.6v0c0.2,0,2.7,0.2,7,0.5
		c-0.2,0.2-0.4,0.8-0.4,1.4c0,0.8,0.2,1.5,0.6,1.6l0,0c0.6,0,26.6,1.7,56.7,9.2c0,0.1-0.1,0.2-0.1,0.4c0,0.1,0,0.1,0,0.2
		c-31.4-7.7-60.9-9.1-67.2-9.3l-0.3,0c0,0,0,0,0,0c-0.4,0-0.7,0.7-0.8,1.5c0,0.8,0.2,1.5,0.6,1.6v0l0.4,0
		c8.3,0.3,57.9,2.7,97.9,19.2c-0.1,0.1-0.1,0.3-0.2,0.4c-0.1,0.2-0.1,0.3-0.1,0.5c-36.4-15.2-77.1-17.9-84.2-18.2l-0.3,0
		c0,0,0,0,0,0c-0.4,0-0.7,0.7-0.8,1.5c0,0,0,0.1,0,0.1c-3.6-0.2-6.5-0.2-8.2-0.2h-0.3l0,0c-0.4,0-0.7,0.7-0.7,1.5
		c0,0.9,0.3,1.6,0.6,1.6c0,0,0,0,0,0v0l0.4,0c8.5,0.1,65.8,1.3,106.3,25.2c0,0.1-0.1,0.2-0.1,0.3c0,0.1,0,0.1-0.1,0.2
		c-39-21.4-88.6-23.8-90-23.8c0,0,0,0,0,0c-0.4,0-0.7,0.7-0.8,1.5c0,0.5,0.1,1,0.2,1.3c-5.5-0.4-8.8-0.4-8.9-0.4v0
		c-0.4,0.1-0.7,0.7-0.7,1.5c0,0.9,0.2,1.6,0.6,1.6v0c0.9,0,73.5,1.7,109.8,32.1c0.4,0.4,0.9,0.9,1.3,1.3c0,0,0,0,0,0
		c0.7,0.8,1.4,1.5,2.1,2.3c11.9,13.7,18.7,30,18.7,47.4c0,15.2-5.3,29.5-14.5,42.1l17.8,49.4c39.4-22.2,64.3-54.7,64.3-90.9
		C379.5,364.6,374,348.4,364,333.7C364.1,333.7,364.1,333.7,364,333.7z"/>
</g>
</svg>
